<?xml version="1.0" encoding="UTF-8" standalone="no"?>
<svg width="481px" height="264px" viewBox="0 0 481 264" version="1.1" xmlns="http://www.w3.org/2000/svg" xmlns:xlink="http://www.w3.org/1999/xlink" xmlns:sketch="http://www.bohemiancoding.com/sketch/ns">
    <!-- Generator: "Sketch Internal" 3.0 (7561) - http://www.bohemiancoding.com/sketch -->
    <title>Rhizome</title>
    <description>Created with "Sketch Internal".</description>
    <defs></defs>
    <g id="Page-1" stroke="none" stroke-width="1.01" fill="none" fill-rule="evenodd" sketch:type="MSPage">
        <g id="Rhizome" sketch:type="MSLayerGroup" transform="translate(0.000000, 1.000000)">
            <g id="Group-11-+-Group-12" transform="translate(0.000000, 138.000000)" sketch:type="MSShapeGroup">
                <g id="Lower" transform="translate(365.500000, 62.500000) scale(-1, 1) translate(-365.500000, -62.500000) translate(250.000000, 0.000000)">
                    <path d="M0.48046875,108.429688 C25.0820313,108.429687 35.53125,83.8300781 56.8164062,83.8300781 C78.1015625,83.8300781 94.7265625,87.1289062 104.992188,89.9824219 C115.257812,92.8359375 134.630859,86.8417969 144.203125,77.4199219 C153.775391,67.9980469 185.310547,83.8300781 193.369141,83.8300781 C201.427734,83.8300781 229.34375,45.1406247 229.34375,39.5820312" id="Path-24" stroke="#16253E"></path>
                    <path d="M137.121094,81.6103516 C137.121094,81.6103516 137.917969,20.5146484 140,18.9443359" id="Path-25" stroke="#16253E"></path>
                    <path d="M137.295898,47.1972656 C137.295898,47.1972656 130.445312,47.1972655 127.560547,41.7138672 C134.260742,37.9101562 137.679688,45.5 137.679688,45.5" id="Path-26" fill="#16253E"></path>
                    <path d="M136.848633,39.2109375 C136.848633,39.2109375 135.104492,36.1282552 127.264648,35.1979167 C119.424805,34.2675781 133.993164,31.3463542 136.086914,34.2753906" id="Path-27" fill="#16253E"></path>
                    <path d="M138.058594,49.7675781 C138.058594,49.7675781 141.15918,42.1142578 146.695312,42.1142578 C152.231445,42.1142578 138.733398,54.6533203 138.733398,54.6533203" id="Path-28" fill="#16253E"></path>
                    <path d="M143.61084,77.4741211 C143.61084,77.4741211 141.833496,70.2338867 145.922363,66.1391602 C150.01123,62.0444336 150.054688,4.73486328 150.054688,4.73486328" id="Path-29" stroke="#16253E"></path>
                    <path d="M149.830566,10.2250977 C149.830566,10.2250977 147.463379,6.28808594 140.240234,8.7421875 C143.063965,12.9570312 149.312988,12.2490234 149.312988,12.2490234" id="Path-30" fill="#16253E"></path>
                    <path d="M149.388672,14.9194336 C149.388672,14.9194336 154.651855,7.32275398 159.915039,9.82226563 C155.538086,16.0844727 152.375,16.9321289 152.375,16.9321289" id="Path-31" fill="#16253E"></path>
                    <path d="M150.234375,22.8828125 C150.234375,22.8828125 149.710938,19.1811523 144.694824,18.6577148 C139.678711,18.1342773 138.506836,19.355957 138.506836,19.355957 C138.506836,19.355957 145.305664,25.6748048 149.382324,24.2788086" id="Path-32" fill="#16253E"></path>
                    <path d="M149.533203,28.9521484 C149.533203,28.9521484 153.15332,23.0195312 158.381836,23.0195312 C155.701172,28.9521484 150.149902,30.9204102 150.149902,30.9204102" id="Path-33" fill="#16253E"></path>
                    <path d="M149.681641,39.652832 C149.681641,39.652832 146.616699,33.6948242 143.493652,33.6948242" id="Path-34" fill="#16253E"></path>
                    <path d="M149.257324,45.9516602 C149.257324,45.9516602 151.249512,38.6791992 159.80127,38.6791992 C156.236328,44.0820314 149.277344,48.8422852 149.277344,48.8422852" id="Path-35" fill="#16253E"></path>
                    <path d="M149.816406,5.515625 C149.816406,5.515625 143.185547,2.71191402 147.023437,0.269531208 C150.861328,-2.1728516 149.932617,2.08984375 149.932617,2.08984375 C149.932617,2.08984375 151.329101,-1.55078121 153.061523,0.26953125 C154.793946,2.08984371 151.1875,5.51562496 151.1875,5.51562496" id="Path-36" fill="#16253E"></path>
                    <path d="M184.28125,81.5810547 C184.28125,81.5810547 184.303711,63.7099609 187.595703,57.3007812 C190.887695,50.8916016 184.106445,43.0634766 183.05957,35.125 C182.012695,27.1865234 181.750977,20.9521484 181.750977,20.9521484" id="Path-37" stroke="#16253E"></path>
                    <path d="M183.330078,31.0712891 C183.330078,31.0712891 189.378906,30.5595703 189.378906,26.7324219 C189.378906,22.9052734 184.540039,28.0693359 184.540039,28.0693359" id="Path-38" fill="#16253E"></path>
                    <path d="M182.283203,29.3662109 L176.125,25.1787109" id="Path-39" stroke="#16253E"></path>
                    <path d="M183.703125,37.4677734 C183.703125,37.4677734 181.760742,30.0761719 174.304688,35.6474609 C166.848633,41.21875 178.637695,32.6298831 182.27832,38.4628906" id="Path-40" fill="#16253E"></path>
                    <path d="M186.206543,44.1005859 C186.206543,44.1005859 187.907715,36.7841797 192.662109,36.7841797 C197.416504,36.7841797 187.122559,42.7163086 187.122559,44.8100586" id="Path-41" fill="#16253E"></path>
                    <path d="M187.951172,50.3618164 C187.951172,50.3618164 185.162109,44.3774414 177.97998,47.8813477 C184.55127,50.3618164 187.86377,53.9121094 187.86377,53.9121094" id="Path-42" fill="#16253E"></path>
                    <path d="M186.877441,58.9804688 C186.877441,58.9804688 189.58252,52.9291992 194.374512,52.9291992 C199.166504,52.9291992 186.833984,60.9873047 186.833984,60.9873047" id="Path-43" fill="#16253E"></path>
                    <path d="M184.970215,66.3901367 C184.970215,66.3901367 184.560059,58.8876953 179.599121,58.8876953 C174.638184,58.8876953 174.158203,61.8417969 174.158203,61.8417969 C174.158203,61.8417969 182.695801,60.5883789 183.306641,67.2504883" id="Path-44" fill="#16253E"></path>
                    <path d="M207.578613,71.699707 C207.578613,71.699707 204.40625,63.5258789 206.406738,60.7080078 C209.898926,64.543457 208.852051,69.2983398 208.852051,69.2983398" id="Path-45" fill="#16253E"></path>
                    <path d="M213.245605,64.2758789 C213.245605,64.2758789 209.125488,59.4892578 210.814941,56.4042969 C214.057129,58.0737305 214.879883,62.9472656 214.879883,62.9472656" id="Path-46" fill="#16253E"></path>
                    <path d="M209.143555,70.7470703 C209.143555,70.7470703 218.754395,72.8237305 222.200195,68.5112305 C219.31543,64.1113281 211.30127,69.6948242 211.30127,69.6948242" id="Path-47" fill="#16253E"></path>
                    <path d="M218.628906,56.6088867 C218.628906,56.6088867 213.39502,55.4018555 214.049316,50.8017578 C217.352539,50.6445312 219.838867,55.3554687 219.838867,55.3554687" id="Path-48" fill="#16253E"></path>
                    <path d="M215.750488,63.0585938 C215.750488,63.0585938 223.229492,63.2329102 225.454102,59.7871094 C223.712402,56.8647461 217.556152,60.5229492 217.556152,60.5229492" id="Path-49" fill="#16253E"></path>
                    <path d="M222.097656,53.6811523 C222.097656,53.6811523 226.497559,56.3530273 229.769043,50.9824219 C227.425293,48.9643555 223.505371,52.3608398 223.505371,52.3608398" id="Path-50" fill="#16253E"></path>
                    <path d="M223.505371,48.5776367 C223.505371,48.5776367 219.416504,44.3203125 221.460937,43.0991211 C223.505371,41.8779297 224.677246,44.9692383 224.677246,44.9692383 C224.677246,44.9692383 224.714844,39.7084959 227.806152,39.7084961 C230.897461,39.7084962 227.669434,46.1699219 227.669434,46.1699219 C227.669434,46.1699219 230.28125,44.7739258 231.28418,46.0390625 C232.287109,47.3041992 225.843262,49.4414062 225.843262,49.4414062" id="Path-51" fill="#16253E"></path>
                    <path d="M138.734009,24.1102013 C138.734009,24.1102013 138.399698,23.2897505 137.980146,22.2601061 L137.463335,20.9917719 C137.046988,19.9699925 137.612159,19.1416767 138.174316,19.1416767 L136.709473,19.1416767 C137.518484,19.1416767 138.390505,18.2739696 138.655669,17.2096948 L138.667085,17.163878 C138.932928,16.0968738 139.342856,16.0968916 139.586846,17.1824386 L139.887397,18.5196347 C140.129524,19.5968896 141.216247,20.3711001 141.954224,20.2889874 L140.325806,20.4701773 C141.225156,20.3701089 141.6912,21.14173 141.362203,22.2083665 L141.619731,21.3734394" id="Path-52" fill="#16253E"></path>
                    <path d="M179.259766,21.6025391 L182.004883,23.9462891 L183.563477,20.0556641" id="Path-53" fill="#16253E"></path>
                    <path d="M135.286399,80.614563 C135.286399,80.614563 136.666548,82.3602905 134.579013,83.0037231 C132.491477,83.6471558 128.697798,86.461853 128.697798,88.598938" id="Path-54" stroke="#16253E"></path>
                    <path d="M135.435547,82.395752 C135.435547,82.395752 137.909801,84.6879272 137.909801,86.4054565 C137.909801,88.1229858 140.622692,92.3112793 142.560547,93.3417969 C144.498402,94.3723145 146.972656,100.641724 146.972656,103.603394 C146.972656,106.565063 146.59233,109.727966 146.59233,109.727966" id="Path-55" stroke="#16253E"></path>
                    <path d="M138.033381,80.7158203 C138.033381,80.7158203 144.212891,83.9500732 144.212891,86.0491333 C144.212891,88.1481934 145.354936,90.2805786 145.354936,90.2805786" id="Path-56" stroke="#16253E"></path>
                    <path d="M139.733665,81.1789551 C139.733665,81.1789551 141.998047,79.194397 144.377486,79.194397" id="Path-57" stroke="#16253E"></path>
                    <path d="M142.207919,79.7186279 C142.207919,79.7186279 142.303267,82.0795898 144.342862,82.0795898" id="Path-58" stroke="#16253E"></path>
                    <path d="M133.934482,83.6877441 C133.934482,83.6877441 133.737926,85.3672485 136.31392,85.8632812 C138.889915,86.359314 131.691939,94.4509277 135.308239,102.15033" id="Path-59" stroke="#16253E"></path>
                    <path d="M135.206499,85.5095215 C135.206499,85.5095215 127.082741,91.1730957 127.837536,94.1732178" id="Path-60" stroke="#16253E"></path>
                    <path d="M136.621271,87.9905396 C136.621271,87.9905396 131.631747,88.6318359 130.822621,92.7611694" id="Path-61" stroke="#16253E"></path>
                    <path d="M133.77255,89.3491821 L133.677734,92.3920288" id="Path-62" stroke="#16253E"></path>
                    <path d="M134.479936,94.480835 C134.479936,94.480835 129.448864,96.7405396 129.448864,100.142273" id="Path-63" stroke="#16253E"></path>
                    <path d="M131.181108,97.1374512 L131.181108,100.506287" id="Path-64" stroke="#16253E"></path>
                    <path d="M134.832564,100.524231 C134.832564,100.524231 131.615767,101.842712 131.615767,103.430359" id="Path-65" stroke="#16253E"></path>
                    <path d="M136.082209,91.5119019 C136.082209,91.5119019 139.835405,95.4733276 139.835405,98.5751343" id="Path-66" stroke="#16253E"></path>
                    <path d="M137.871449,94.119812 L137.871449,97.2775879" id="Path-67" stroke="#16253E"></path>
                    <path d="M139.190874,89.8174438 C139.190874,89.8174438 140.183771,93.0948486 140.754794,94.534668 C141.325817,95.9744873 141.347124,98.961792 140.659979,99.8624268 C139.972834,100.763062 128.151278,108.515869 129.680575,111.892395" id="Path-68" stroke="#16253E"></path>
                    <path d="M133.731534,106.510803 L133.731534,111.11908 C133.731534,111.729614 131.888494,112.836182 131.888494,113.938049" id="Path-69" stroke="#16253E"></path>
                    <path d="M135.736506,103.533752 C135.736506,103.533752 136.186612,107.549011 136.764027,109.724548" id="Path-70" stroke="#16253E"></path>
                    <path d="M136.015625,105.770386 C136.015625,105.770386 139.035334,108.111267 139.035334,108.836304" id="Path-71" stroke="#16253E"></path>
                    <path d="M134.6163,97.7172241 C134.6163,97.7172241 138.042436,101.419312 139.463601,104.047729" id="Path-72" stroke="#16253E"></path>
                    <path d="M138.077592,101.620544 L138.315163,105.546509" id="Path-73" stroke="#16253E"></path>
                    <path d="M141.224609,99.0198975 C141.224609,99.0198975 142.366655,106.856445 142.366655,108.525696" id="Path-74" stroke="#16253E"></path>
                    <path d="M142.40767,103.978943 C142.40767,103.978943 144.888317,106.335205 144.888317,106.826111" id="Path-75" stroke="#16253E"></path>
                    <path d="M141.46218,94.6175537 C141.46218,94.6175537 144.828125,100.666077 144.828125,102.68866" id="Path-76" stroke="#16253E"></path>
                    <path d="M145.732067,97.5946045 C145.732067,97.5946045 148.653764,95.4673462 151.905185,97.9278564" id="Path-77" stroke="#16253E"></path>
                    <path d="M142.464666,92.6355591 C142.464666,92.6355591 149.719105,92.2211304 150.950107,94.1087036" id="Path-78" stroke="#16253E"></path>
                    <path d="M146.788352,92.4138184 C146.788352,92.4138184 150.017401,95.538269 150.017401,97.5941772" id="Path-79" stroke="#16253E"></path>
                    <path d="M139.78054,82.1265869 C139.78054,82.1265869 138.216619,85.319397 138.216619,87.8358765" id="Path-80" stroke="#16253E"></path>
                    <path d="M178.322399,82.0758667 C178.322399,82.0758667 180.27761,84.3203735 177.320268,85.147644 C174.362926,85.9749146 168.988548,89.593811 168.988548,92.3414917" id="Path-54" stroke="#16253E"></path>
                    <path d="M178.533691,83.3659668 C178.533691,83.3659668 182.038885,86.3130493 182.038885,88.5213013 C182.038885,90.7295532 185.882147,96.114502 188.627441,97.4394531 C191.372736,98.7644043 194.87793,106.825073 194.87793,110.632935 C194.87793,114.440796 194.339134,118.507385 194.339134,118.507385" id="Path-55" stroke="#16253E"></path>
                    <path d="M182.213956,82.2060547 C182.213956,82.2060547 190.968262,86.3643799 190.968262,89.0631714 C190.968262,91.7619629 192.586159,94.5036011 192.586159,94.5036011" id="Path-56" stroke="#16253E"></path>
                    <path d="M184.622692,82.8015137 C184.622692,82.8015137 187.830566,80.249939 191.201438,80.249939" id="Path-57" stroke="#16253E"></path>
                    <path d="M188.127885,80.9239502 C188.127885,80.9239502 188.262962,83.9594727 191.152388,83.9594727" id="Path-58" stroke="#16253E"></path>
                    <path d="M176.407182,86.0270996 C176.407182,86.0270996 176.128729,88.1864624 179.778054,88.8242188 C183.427379,89.4619751 173.230247,99.8654785 178.353338,109.764709" id="Path-59" stroke="#16253E"></path>
                    <path d="M178.209206,88.3693848 C178.209206,88.3693848 166.70055,95.651123 167.769842,99.5084229" id="Path-60" stroke="#16253E"></path>
                    <path d="M180.213468,91.5592651 C180.213468,91.5592651 173.144975,92.3837891 171.998713,97.6929321" id="Path-61" stroke="#16253E"></path>
                    <path d="M176.177779,93.3060913 L176.043457,97.2183228" id="Path-62" stroke="#16253E"></path>
                    <path d="M177.179909,99.9039307 C177.179909,99.9039307 170.052557,102.809265 170.052557,107.182922" id="Path-63" stroke="#16253E"></path>
                    <path d="M172.50657,103.31958 L172.50657,107.65094" id="Path-64" stroke="#16253E"></path>
                    <path d="M177.679466,107.674011 C177.679466,107.674011 173.122337,109.369202 173.122337,111.410461" id="Path-65" stroke="#16253E"></path>
                    <path d="M179.449796,96.086731 C179.449796,96.086731 184.766824,101.179993 184.766824,105.16803" id="Path-66" stroke="#16253E"></path>
                    <path d="M181.984553,99.4397583 L181.984553,103.499756" id="Path-67" stroke="#16253E"></path>
                    <path d="M183.853738,93.9081421 C183.853738,93.9081421 185.260343,98.1219482 186.069292,99.9731445 C186.87824,101.824341 186.908425,105.665161 185.93497,106.82312 C184.961515,107.981079 168.214311,117.948975 170.380815,122.290222" id="Path-68" stroke="#16253E"></path>
                    <path d="M176.119673,115.371033 L176.119673,121.295959 C176.119673,122.080933 173.5087,123.503662 173.5087,124.920349" id="Path-69" stroke="#16253E"></path>
                    <path d="M178.96005,111.543396 C178.96005,111.543396 179.597701,116.705872 180.415705,119.502991" id="Path-70" stroke="#16253E"></path>
                    <path d="M177.373091,104.065002 C177.373091,104.065002 182.226784,108.824829 184.240101,112.204224" id="Path-72" stroke="#16253E"></path>
                    <path d="M182.276589,109.083557 L182.613148,114.131226" id="Path-73" stroke="#16253E"></path>
                    <path d="M186.734863,105.739868 C186.734863,105.739868 188.352761,115.81543 188.352761,117.961609" id="Path-74" stroke="#16253E"></path>
                    <path d="M188.410866,112.115784 C188.410866,112.115784 191.925115,115.145264 191.925115,115.776428" id="Path-75" stroke="#16253E"></path>
                    <path d="M187.071422,100.079712 C187.071422,100.079712 191.839844,107.856384 191.839844,110.456848" id="Path-76" stroke="#16253E"></path>
                    <path d="M193.120428,103.907349 C193.120428,103.907349 197.259499,101.172302 201.865678,104.335815" id="Path-77" stroke="#16253E"></path>
                    <path d="M188.49161,97.5314331 C188.49161,97.5314331 198.768732,96.9985962 200.512651,99.4254761" id="Path-78" stroke="#16253E"></path>
                    <path d="M194.616832,97.2463379 C194.616832,97.2463379 199.191317,101.263489 199.191317,103.906799" id="Path-79" stroke="#16253E"></path>
                    <path d="M184.689098,84.0198975 C184.689098,84.0198975 182.473544,88.124939 182.473544,91.3604126" id="Path-80" stroke="#16253E"></path>
                </g>
                <g id="Lower-2">
                    <path d="M0.48046875,108.429688 C25.0820313,108.429687 35.53125,83.8300781 56.8164062,83.8300781 C78.1015625,83.8300781 94.7265625,87.1289062 104.992188,89.9824219 C115.257812,92.8359375 134.630859,86.8417969 144.203125,77.4199219 C153.775391,67.9980469 185.310547,83.8300781 193.369141,83.8300781 C201.427734,83.8300781 229.34375,45.1406247 229.34375,39.5820312" id="Path-24" stroke="#16253E"></path>
                    <path d="M137.121094,81.6103516 C137.121094,81.6103516 137.917969,20.5146484 140,18.9443359" id="Path-25" stroke="#16253E"></path>
                    <path d="M137.295898,47.1972656 C137.295898,47.1972656 130.445312,47.1972655 127.560547,41.7138672 C134.260742,37.9101562 137.679688,45.5 137.679688,45.5" id="Path-26" fill="#16253E"></path>
                    <path d="M136.848633,39.2109375 C136.848633,39.2109375 135.104492,36.1282552 127.264648,35.1979167 C119.424805,34.2675781 133.993164,31.3463542 136.086914,34.2753906" id="Path-27" fill="#16253E"></path>
                    <path d="M138.058594,49.7675781 C138.058594,49.7675781 141.15918,42.1142578 146.695312,42.1142578 C152.231445,42.1142578 138.733398,54.6533203 138.733398,54.6533203" id="Path-28" fill="#16253E"></path>
                    <path d="M143.61084,77.4741211 C143.61084,77.4741211 141.833496,70.2338867 145.922363,66.1391602 C150.01123,62.0444336 150.054688,4.73486328 150.054688,4.73486328" id="Path-29" stroke="#16253E"></path>
                    <path d="M149.830566,10.2250977 C149.830566,10.2250977 147.463379,6.28808594 140.240234,8.7421875 C143.063965,12.9570312 149.312988,12.2490234 149.312988,12.2490234" id="Path-30" fill="#16253E"></path>
                    <path d="M149.388672,14.9194336 C149.388672,14.9194336 154.651855,7.32275398 159.915039,9.82226563 C155.538086,16.0844727 152.375,16.9321289 152.375,16.9321289" id="Path-31" fill="#16253E"></path>
                    <path d="M150.234375,22.8828125 C150.234375,22.8828125 149.710938,19.1811523 144.694824,18.6577148 C139.678711,18.1342773 138.506836,19.355957 138.506836,19.355957 C138.506836,19.355957 145.305664,25.6748048 149.382324,24.2788086" id="Path-32" fill="#16253E"></path>
                    <path d="M149.533203,28.9521484 C149.533203,28.9521484 153.15332,23.0195312 158.381836,23.0195312 C155.701172,28.9521484 150.149902,30.9204102 150.149902,30.9204102" id="Path-33" fill="#16253E"></path>
                    <path d="M149.681641,39.652832 C149.681641,39.652832 146.616699,33.6948242 143.493652,33.6948242" id="Path-34" fill="#16253E"></path>
                    <path d="M149.257324,45.9516602 C149.257324,45.9516602 151.249512,38.6791992 159.80127,38.6791992 C156.236328,44.0820314 149.277344,48.8422852 149.277344,48.8422852" id="Path-35" fill="#16253E"></path>
                    <path d="M149.816406,5.515625 C149.816406,5.515625 143.185547,2.71191402 147.023437,0.269531208 C150.861328,-2.1728516 149.932617,2.08984375 149.932617,2.08984375 C149.932617,2.08984375 151.329101,-1.55078121 153.061523,0.26953125 C154.793946,2.08984371 151.1875,5.51562496 151.1875,5.51562496" id="Path-36" fill="#16253E"></path>
                    <path d="M184.28125,81.5810547 C184.28125,81.5810547 184.303711,63.7099609 187.595703,57.3007812 C190.887695,50.8916016 184.106445,43.0634766 183.05957,35.125 C182.012695,27.1865234 181.750977,20.9521484 181.750977,20.9521484" id="Path-37" stroke="#16253E"></path>
                    <path d="M183.330078,31.0712891 C183.330078,31.0712891 189.378906,30.5595703 189.378906,26.7324219 C189.378906,22.9052734 184.540039,28.0693359 184.540039,28.0693359" id="Path-38" fill="#16253E"></path>
                    <path d="M182.283203,29.3662109 L176.125,25.1787109" id="Path-39" stroke="#16253E"></path>
                    <path d="M183.703125,37.4677734 C183.703125,37.4677734 181.760742,30.0761719 174.304688,35.6474609 C166.848633,41.21875 178.637695,32.6298831 182.27832,38.4628906" id="Path-40" fill="#16253E"></path>
                    <path d="M186.206543,44.1005859 C186.206543,44.1005859 187.907715,36.7841797 192.662109,36.7841797 C197.416504,36.7841797 187.122559,42.7163086 187.122559,44.8100586" id="Path-41" fill="#16253E"></path>
                    <path d="M187.951172,50.3618164 C187.951172,50.3618164 185.162109,44.3774414 177.97998,47.8813477 C184.55127,50.3618164 187.86377,53.9121094 187.86377,53.9121094" id="Path-42" fill="#16253E"></path>
                    <path d="M186.877441,58.9804688 C186.877441,58.9804688 189.58252,52.9291992 194.374512,52.9291992 C199.166504,52.9291992 186.833984,60.9873047 186.833984,60.9873047" id="Path-43" fill="#16253E"></path>
                    <path d="M184.970215,66.3901367 C184.970215,66.3901367 184.560059,58.8876953 179.599121,58.8876953 C174.638184,58.8876953 174.158203,61.8417969 174.158203,61.8417969 C174.158203,61.8417969 182.695801,60.5883789 183.306641,67.2504883" id="Path-44" fill="#16253E"></path>
                    <path d="M207.578613,71.699707 C207.578613,71.699707 204.40625,63.5258789 206.406738,60.7080078 C209.898926,64.543457 208.852051,69.2983398 208.852051,69.2983398" id="Path-45" fill="#16253E"></path>
                    <path d="M213.245605,64.2758789 C213.245605,64.2758789 209.125488,59.4892578 210.814941,56.4042969 C214.057129,58.0737305 214.879883,62.9472656 214.879883,62.9472656" id="Path-46" fill="#16253E"></path>
                    <path d="M209.143555,70.7470703 C209.143555,70.7470703 218.754395,72.8237305 222.200195,68.5112305 C219.31543,64.1113281 211.30127,69.6948242 211.30127,69.6948242" id="Path-47" fill="#16253E"></path>
                    <path d="M218.628906,56.6088867 C218.628906,56.6088867 213.39502,55.4018555 214.049316,50.8017578 C217.352539,50.6445312 219.838867,55.3554687 219.838867,55.3554687" id="Path-48" fill="#16253E"></path>
                    <path d="M215.750488,63.0585938 C215.750488,63.0585938 223.229492,63.2329102 225.454102,59.7871094 C223.712402,56.8647461 217.556152,60.5229492 217.556152,60.5229492" id="Path-49" fill="#16253E"></path>
                    <path d="M222.097656,53.6811523 C222.097656,53.6811523 226.497559,56.3530273 229.769043,50.9824219 C227.425293,48.9643555 223.505371,52.3608398 223.505371,52.3608398" id="Path-50" fill="#16253E"></path>
                    <path d="M223.505371,48.5776367 C223.505371,48.5776367 219.416504,44.3203125 221.460937,43.0991211 C223.505371,41.8779297 224.677246,44.9692383 224.677246,44.9692383 C224.677246,44.9692383 224.714844,39.7084959 227.806152,39.7084961 C230.897461,39.7084962 227.669434,46.1699219 227.669434,46.1699219 C227.669434,46.1699219 230.28125,44.7739258 231.28418,46.0390625 C232.287109,47.3041992 225.843262,49.4414062 225.843262,49.4414062" id="Path-51" fill="#16253E"></path>
                    <path d="M138.734009,24.1102013 C138.734009,24.1102013 138.399698,23.2897505 137.980146,22.2601061 L137.463335,20.9917719 C137.046988,19.9699925 137.612159,19.1416767 138.174316,19.1416767 L136.709473,19.1416767 C137.518484,19.1416767 138.390505,18.2739696 138.655669,17.2096948 L138.667085,17.163878 C138.932928,16.0968738 139.342856,16.0968916 139.586846,17.1824386 L139.887397,18.5196347 C140.129524,19.5968896 141.216247,20.3711001 141.954224,20.2889874 L140.325806,20.4701773 C141.225156,20.3701089 141.6912,21.14173 141.362203,22.2083665 L141.619731,21.3734394" id="Path-52" fill="#16253E"></path>
                    <path d="M179.259766,21.6025391 L182.004883,23.9462891 L183.563477,20.0556641" id="Path-53" fill="#16253E"></path>
                    <path d="M135.286399,80.614563 C135.286399,80.614563 136.666548,82.3602905 134.579013,83.0037231 C132.491477,83.6471558 128.697798,86.461853 128.697798,88.598938" id="Path-54" stroke="#16253E"></path>
                    <path d="M135.435547,82.395752 C135.435547,82.395752 137.909801,84.6879272 137.909801,86.4054565 C137.909801,88.1229858 140.622692,92.3112793 142.560547,93.3417969 C144.498402,94.3723145 146.972656,100.641724 146.972656,103.603394 C146.972656,106.565063 146.59233,109.727966 146.59233,109.727966" id="Path-55" stroke="#16253E"></path>
                    <path d="M138.033381,80.7158203 C138.033381,80.7158203 144.212891,83.9500732 144.212891,86.0491333 C144.212891,88.1481934 145.354936,90.2805786 145.354936,90.2805786" id="Path-56" stroke="#16253E"></path>
                    <path d="M139.733665,81.1789551 C139.733665,81.1789551 141.998047,79.194397 144.377486,79.194397" id="Path-57" stroke="#16253E"></path>
                    <path d="M142.207919,79.7186279 C142.207919,79.7186279 142.303267,82.0795898 144.342862,82.0795898" id="Path-58" stroke="#16253E"></path>
                    <path d="M133.934482,83.6877441 C133.934482,83.6877441 133.737926,85.3672485 136.31392,85.8632812 C138.889915,86.359314 131.691939,94.4509277 135.308239,102.15033" id="Path-59" stroke="#16253E"></path>
                    <path d="M135.206499,85.5095215 C135.206499,85.5095215 127.082741,91.1730957 127.837536,94.1732178" id="Path-60" stroke="#16253E"></path>
                    <path d="M136.621271,87.9905396 C136.621271,87.9905396 131.631747,88.6318359 130.822621,92.7611694" id="Path-61" stroke="#16253E"></path>
                    <path d="M133.77255,89.3491821 L133.677734,92.3920288" id="Path-62" stroke="#16253E"></path>
                    <path d="M134.479936,94.480835 C134.479936,94.480835 129.448864,96.7405396 129.448864,100.142273" id="Path-63" stroke="#16253E"></path>
                    <path d="M131.181108,97.1374512 L131.181108,100.506287" id="Path-64" stroke="#16253E"></path>
                    <path d="M134.832564,100.524231 C134.832564,100.524231 131.615767,101.842712 131.615767,103.430359" id="Path-65" stroke="#16253E"></path>
                    <path d="M136.082209,91.5119019 C136.082209,91.5119019 139.835405,95.4733276 139.835405,98.5751343" id="Path-66" stroke="#16253E"></path>
                    <path d="M137.871449,94.119812 L137.871449,97.2775879" id="Path-67" stroke="#16253E"></path>
                    <path d="M139.190874,89.8174438 C139.190874,89.8174438 140.183771,93.0948486 140.754794,94.534668 C141.325817,95.9744873 141.347124,98.961792 140.659979,99.8624268 C139.972834,100.763062 128.151278,108.515869 129.680575,111.892395" id="Path-68" stroke="#16253E"></path>
                    <path d="M133.731534,106.510803 L133.731534,111.11908 C133.731534,111.729614 131.888494,112.836182 131.888494,113.938049" id="Path-69" stroke="#16253E"></path>
                    <path d="M135.736506,103.533752 C135.736506,103.533752 136.186612,107.549011 136.764027,109.724548" id="Path-70" stroke="#16253E"></path>
                    <path d="M136.015625,105.770386 C136.015625,105.770386 139.035334,108.111267 139.035334,108.836304" id="Path-71" stroke="#16253E"></path>
                    <path d="M134.6163,97.7172241 C134.6163,97.7172241 138.042436,101.419312 139.463601,104.047729" id="Path-72" stroke="#16253E"></path>
                    <path d="M138.077592,101.620544 L138.315163,105.546509" id="Path-73" stroke="#16253E"></path>
                    <path d="M141.224609,99.0198975 C141.224609,99.0198975 142.366655,106.856445 142.366655,108.525696" id="Path-74" stroke="#16253E"></path>
                    <path d="M142.40767,103.978943 C142.40767,103.978943 144.888317,106.335205 144.888317,106.826111" id="Path-75" stroke="#16253E"></path>
                    <path d="M141.46218,94.6175537 C141.46218,94.6175537 144.828125,100.666077 144.828125,102.68866" id="Path-76" stroke="#16253E"></path>
                    <path d="M145.732067,97.5946045 C145.732067,97.5946045 148.653764,95.4673462 151.905185,97.9278564" id="Path-77" stroke="#16253E"></path>
                    <path d="M142.464666,92.6355591 C142.464666,92.6355591 149.719105,92.2211304 150.950107,94.1087036" id="Path-78" stroke="#16253E"></path>
                    <path d="M146.788352,92.4138184 C146.788352,92.4138184 150.017401,95.538269 150.017401,97.5941772" id="Path-79" stroke="#16253E"></path>
                    <path d="M139.78054,82.1265869 C139.78054,82.1265869 138.216619,85.319397 138.216619,87.8358765" id="Path-80" stroke="#16253E"></path>
                    <path d="M178.322399,82.0758667 C178.322399,82.0758667 180.27761,84.3203735 177.320268,85.147644 C174.362926,85.9749146 168.988548,89.593811 168.988548,92.3414917" id="Path-54" stroke="#16253E"></path>
                    <path d="M178.533691,83.3659668 C178.533691,83.3659668 182.038885,86.3130493 182.038885,88.5213013 C182.038885,90.7295532 185.882147,96.114502 188.627441,97.4394531 C191.372736,98.7644043 194.87793,106.825073 194.87793,110.632935 C194.87793,114.440796 194.339134,118.507385 194.339134,118.507385" id="Path-55" stroke="#16253E"></path>
                    <path d="M182.213956,82.2060547 C182.213956,82.2060547 190.968262,86.3643799 190.968262,89.0631714 C190.968262,91.7619629 192.586159,94.5036011 192.586159,94.5036011" id="Path-56" stroke="#16253E"></path>
                    <path d="M184.622692,82.8015137 C184.622692,82.8015137 187.830566,80.249939 191.201438,80.249939" id="Path-57" stroke="#16253E"></path>
                    <path d="M188.127885,80.9239502 C188.127885,80.9239502 188.262962,83.9594727 191.152388,83.9594727" id="Path-58" stroke="#16253E"></path>
                    <path d="M176.407182,86.0270996 C176.407182,86.0270996 176.128729,88.1864624 179.778054,88.8242188 C183.427379,89.4619751 173.230247,99.8654785 178.353338,109.764709" id="Path-59" stroke="#16253E"></path>
                    <path d="M178.209206,88.3693848 C178.209206,88.3693848 166.70055,95.651123 167.769842,99.5084229" id="Path-60" stroke="#16253E"></path>
                    <path d="M180.213468,91.5592651 C180.213468,91.5592651 173.144975,92.3837891 171.998713,97.6929321" id="Path-61" stroke="#16253E"></path>
                    <path d="M176.177779,93.3060913 L176.043457,97.2183228" id="Path-62" stroke="#16253E"></path>
                    <path d="M177.179909,99.9039307 C177.179909,99.9039307 170.052557,102.809265 170.052557,107.182922" id="Path-63" stroke="#16253E"></path>
                    <path d="M172.50657,103.31958 L172.50657,107.65094" id="Path-64" stroke="#16253E"></path>
                    <path d="M177.679466,107.674011 C177.679466,107.674011 173.122337,109.369202 173.122337,111.410461" id="Path-65" stroke="#16253E"></path>
                    <path d="M179.449796,96.086731 C179.449796,96.086731 184.766824,101.179993 184.766824,105.16803" id="Path-66" stroke="#16253E"></path>
                    <path d="M181.984553,99.4397583 L181.984553,103.499756" id="Path-67" stroke="#16253E"></path>
                    <path d="M183.853738,93.9081421 C183.853738,93.9081421 185.260343,98.1219482 186.069292,99.9731445 C186.87824,101.824341 186.908425,105.665161 185.93497,106.82312 C184.961515,107.981079 168.214311,117.948975 170.380815,122.290222" id="Path-68" stroke="#16253E"></path>
                    <path d="M176.119673,115.371033 L176.119673,121.295959 C176.119673,122.080933 173.5087,123.503662 173.5087,124.920349" id="Path-69" stroke="#16253E"></path>
                    <path d="M178.96005,111.543396 C178.96005,111.543396 179.597701,116.705872 180.415705,119.502991" id="Path-70" stroke="#16253E"></path>
                    <path d="M177.373091,104.065002 C177.373091,104.065002 182.226784,108.824829 184.240101,112.204224" id="Path-72" stroke="#16253E"></path>
                    <path d="M182.276589,109.083557 L182.613148,114.131226" id="Path-73" stroke="#16253E"></path>
                    <path d="M186.734863,105.739868 C186.734863,105.739868 188.352761,115.81543 188.352761,117.961609" id="Path-74" stroke="#16253E"></path>
                    <path d="M188.410866,112.115784 C188.410866,112.115784 191.925115,115.145264 191.925115,115.776428" id="Path-75" stroke="#16253E"></path>
                    <path d="M187.071422,100.079712 C187.071422,100.079712 191.839844,107.856384 191.839844,110.456848" id="Path-76" stroke="#16253E"></path>
                    <path d="M193.120428,103.907349 C193.120428,103.907349 197.259499,101.172302 201.865678,104.335815" id="Path-77" stroke="#16253E"></path>
                    <path d="M188.49161,97.5314331 C188.49161,97.5314331 198.768732,96.9985962 200.512651,99.4254761" id="Path-78" stroke="#16253E"></path>
                    <path d="M194.616832,97.2463379 C194.616832,97.2463379 199.191317,101.263489 199.191317,103.906799" id="Path-79" stroke="#16253E"></path>
                    <path d="M184.689098,84.0198975 C184.689098,84.0198975 182.473544,88.124939 182.473544,91.3604126" id="Path-80" stroke="#16253E"></path>
                </g>
            </g>
            <g id="Group" transform="translate(6.000000, 0.000000)" sketch:type="MSShapeGroup">
                <g id="Root" transform="translate(122.000000, 90.000000)" stroke="#16253E">
                    <path d="M7.41517857,0.51108871 C7.41517857,0.51108871 10.0326916,8.42943548 12.30492,9.86441532 C14.5771484,11.2993952 20.7001953,15.3064516 21.7452567,16.7923387" id="Path-1847"></path>
                    <path d="M15.9874442,12.4702621 L16.5235305,17.3205645" id="Path-1848"></path>
                    <path d="M15.890253,11.6658266 C15.890253,11.6658266 18.750744,15.4863911 18.750744,17.1854839" id="Path-1849"></path>
                    <path d="M13.038458,10.3684476 L13.038458,14.2676411" id="Path-1850"></path>
                    <path d="M6.05296689,0.558971774 L6.56194196,11.2631048 C6.56194196,11.2631048 -0.00613839286,17.843246 -0.00613839286,20.9768145" id="Path-1851"></path>
                    <path d="M3.65592448,14.4359879 C3.65592448,14.4359879 2.28450521,22.0272177 5.66624814,25.1340726" id="Path-1852"></path>
                    <path d="M5.2094494,13.7212702 C5.2094494,13.7212702 5.75167411,15.6068548 5.75167411,17.3054435 C5.75167411,19.0040323 6.3000372,22.4652218 6.3000372,22.4652218" id="Path-1853"></path>
                    <path d="M1.36476935,17.3503024 L1.36476935,20.4390121" id="Path-1854"></path>
                    <path d="M4.43243118,23.7772177 C4.43243118,23.7772177 4.07896205,27.6759073 5.11788504,28.8467742" id="Path-1855"></path>
                    <path d="M6.93996466,11.1668347 C6.93996466,11.1668347 12.1304874,16.4334677 14.8661644,19.0554435 C17.6018415,21.6774194 19.9385231,32.1033266 19.9385231,32.1033266" id="Path-1856"></path>
                    <path d="M14.5464565,18.4667339 C14.5464565,18.4667339 20.9835844,21.6577621 20.9835844,25.0614919" id="Path-1857"></path>
                    <path d="M12.0210193,16.2303427 C12.0210193,16.2303427 10.5191592,20.7444556 12.0210193,23.1129032" id="Path-1858"></path>
                    <path d="M14.945452,18.7394153 L14.8083612,23.0050403" id="Path-1859"></path>
                    <path d="M18.2750186,26.4354839 C18.2750186,26.4354839 16.7276321,28.2520161 16.7276321,30.7731855" id="Path-1860"></path>
                    <path d="M5.52608817,0.0745967742 C5.52608817,0.0745967742 3.28045945,3.6890121 3.28045945,7.81300403 C3.28045945,11.936996 2.40625,13.6300403 2.40625,13.6300403" id="Path-1861"></path>
                    <path d="M3.22265625,7.84879032 C3.22265625,7.84879032 0.14015997,8.22379032 0.14015997,11.1053427" id="Path-1862"></path>
                    <path d="M3.29273624,7.92641129 C3.29273624,7.92641129 5.07491629,8.74294355 5.07491629,10.4929435" id="Path-1863"></path>
                    <path d="M8.17020089,11.6965726 C8.17020089,11.6965726 7.49088542,16.5539315 8.17020089,17.5831653" id="Path-1864"></path>
                </g>
                <g id="Lower-3" transform="translate(117.500000, 62.500000) scale(-1, 1) translate(-117.500000, -62.500000) ">
                    <path d="M0.48046875,108.429688 C25.0820313,108.429687 39.53125,83.8300781 60.8164062,83.8300781 C82.1015625,83.8300781 98.7265625,87.1289062 108.992188,89.9824219 C119.257812,92.8359375 138.630859,86.8417969 148.203125,77.4199219 C157.775391,67.9980469 189.310547,83.8300781 197.369141,83.8300781 C205.427734,83.8300781 233.34375,45.1406247 233.34375,39.5820312" id="Path-24" stroke="#16253E"></path>
                    <path d="M141.121094,81.6103516 C141.121094,81.6103516 141.917969,20.5146484 144,18.9443359" id="Path-25" stroke="#16253E"></path>
                    <path d="M141.295898,47.1972656 C141.295898,47.1972656 134.445312,47.1972655 131.560547,41.7138672 C138.260742,37.9101562 141.679688,45.5 141.679688,45.5" id="Path-26" fill="#16253E"></path>
                    <path d="M140.848633,39.2109375 C140.848633,39.2109375 139.104492,36.1282552 131.264648,35.1979167 C123.424805,34.2675781 137.993164,31.3463542 140.086914,34.2753906" id="Path-27" fill="#16253E"></path>
                    <path d="M142.058594,49.7675781 C142.058594,49.7675781 145.15918,42.1142578 150.695312,42.1142578 C156.231445,42.1142578 142.733398,54.6533203 142.733398,54.6533203" id="Path-28" fill="#16253E"></path>
                    <path d="M147.61084,77.4741211 C147.61084,77.4741211 145.833496,70.2338867 149.922363,66.1391602 C154.01123,62.0444336 154.054688,4.73486328 154.054688,4.73486328" id="Path-29" stroke="#16253E"></path>
                    <path d="M153.830566,10.2250977 C153.830566,10.2250977 151.463379,6.28808594 144.240234,8.7421875 C147.063965,12.9570312 153.312988,12.2490234 153.312988,12.2490234" id="Path-30" fill="#16253E"></path>
                    <path d="M153.388672,14.9194336 C153.388672,14.9194336 158.651855,7.32275398 163.915039,9.82226563 C159.538086,16.0844727 156.375,16.9321289 156.375,16.9321289" id="Path-31" fill="#16253E"></path>
                    <path d="M154.234375,22.8828125 C154.234375,22.8828125 153.710938,19.1811523 148.694824,18.6577148 C143.678711,18.1342773 142.506836,19.355957 142.506836,19.355957 C142.506836,19.355957 149.305664,25.6748048 153.382324,24.2788086" id="Path-32" fill="#16253E"></path>
                    <path d="M153.533203,28.9521484 C153.533203,28.9521484 157.15332,23.0195312 162.381836,23.0195312 C159.701172,28.9521484 154.149902,30.9204102 154.149902,30.9204102" id="Path-33" fill="#16253E"></path>
                    <path d="M153.681641,39.652832 C153.681641,39.652832 150.616699,33.6948242 147.493652,33.6948242" id="Path-34" fill="#16253E"></path>
                    <path d="M153.257324,45.9516602 C153.257324,45.9516602 155.249512,38.6791992 163.80127,38.6791992 C160.236328,44.0820314 153.277344,48.8422852 153.277344,48.8422852" id="Path-35" fill="#16253E"></path>
                    <path d="M153.816406,5.515625 C153.816406,5.515625 147.185547,2.71191402 151.023437,0.269531208 C154.861328,-2.1728516 153.932617,2.08984375 153.932617,2.08984375 C153.932617,2.08984375 155.329101,-1.55078121 157.061523,0.26953125 C158.793946,2.08984371 155.1875,5.51562496 155.1875,5.51562496" id="Path-36" fill="#16253E"></path>
                    <path d="M188.28125,81.5810547 C188.28125,81.5810547 188.303711,63.7099609 191.595703,57.3007812 C194.887695,50.8916016 188.106445,43.0634766 187.05957,35.125 C186.012695,27.1865234 185.750977,20.9521484 185.750977,20.9521484" id="Path-37" stroke="#16253E"></path>
                    <path d="M187.330078,31.0712891 C187.330078,31.0712891 193.378906,30.5595703 193.378906,26.7324219 C193.378906,22.9052734 188.540039,28.0693359 188.540039,28.0693359" id="Path-38" fill="#16253E"></path>
                    <path d="M186.283203,29.3662109 L180.125,25.1787109" id="Path-39" stroke="#16253E"></path>
                    <path d="M187.703125,37.4677734 C187.703125,37.4677734 185.760742,30.0761719 178.304688,35.6474609 C170.848633,41.21875 182.637695,32.6298831 186.27832,38.4628906" id="Path-40" fill="#16253E"></path>
                    <path d="M190.206543,44.1005859 C190.206543,44.1005859 191.907715,36.7841797 196.662109,36.7841797 C201.416504,36.7841797 191.122559,42.7163086 191.122559,44.8100586" id="Path-41" fill="#16253E"></path>
                    <path d="M191.951172,50.3618164 C191.951172,50.3618164 189.162109,44.3774414 181.97998,47.8813477 C188.55127,50.3618164 191.86377,53.9121094 191.86377,53.9121094" id="Path-42" fill="#16253E"></path>
                    <path d="M190.877441,58.9804688 C190.877441,58.9804688 193.58252,52.9291992 198.374512,52.9291992 C203.166504,52.9291992 190.833984,60.9873047 190.833984,60.9873047" id="Path-43" fill="#16253E"></path>
                    <path d="M188.970215,66.3901367 C188.970215,66.3901367 188.560059,58.8876953 183.599121,58.8876953 C178.638184,58.8876953 178.158203,61.8417969 178.158203,61.8417969 C178.158203,61.8417969 186.695801,60.5883789 187.306641,67.2504883" id="Path-44" fill="#16253E"></path>
                    <path d="M211.578613,71.699707 C211.578613,71.699707 208.40625,63.5258789 210.406738,60.7080078 C213.898926,64.543457 212.852051,69.2983398 212.852051,69.2983398" id="Path-45" fill="#16253E"></path>
                    <path d="M217.245605,64.2758789 C217.245605,64.2758789 213.125488,59.4892578 214.814941,56.4042969 C218.057129,58.0737305 218.879883,62.9472656 218.879883,62.9472656" id="Path-46" fill="#16253E"></path>
                    <path d="M213.143555,70.7470703 C213.143555,70.7470703 222.754395,72.8237305 226.200195,68.5112305 C223.31543,64.1113281 215.30127,69.6948242 215.30127,69.6948242" id="Path-47" fill="#16253E"></path>
                    <path d="M222.628906,56.6088867 C222.628906,56.6088867 217.39502,55.4018555 218.049316,50.8017578 C221.352539,50.6445312 223.838867,55.3554687 223.838867,55.3554687" id="Path-48" fill="#16253E"></path>
                    <path d="M219.750488,63.0585938 C219.750488,63.0585938 227.229492,63.2329102 229.454102,59.7871094 C227.712402,56.8647461 221.556152,60.5229492 221.556152,60.5229492" id="Path-49" fill="#16253E"></path>
                    <path d="M226.097656,53.6811523 C226.097656,53.6811523 230.497559,56.3530273 233.769043,50.9824219 C231.425293,48.9643555 227.505371,52.3608398 227.505371,52.3608398" id="Path-50" fill="#16253E"></path>
                    <path d="M227.505371,48.5776367 C227.505371,48.5776367 223.416504,44.3203125 225.460937,43.0991211 C227.505371,41.8779297 228.677246,44.9692383 228.677246,44.9692383 C228.677246,44.9692383 228.714844,39.7084959 231.806152,39.7084961 C234.897461,39.7084962 231.669434,46.1699219 231.669434,46.1699219 C231.669434,46.1699219 234.28125,44.7739258 235.28418,46.0390625 C236.287109,47.3041992 229.843262,49.4414062 229.843262,49.4414062" id="Path-51" fill="#16253E"></path>
                    <path d="M142.734009,24.1102013 C142.734009,24.1102013 142.399698,23.2897505 141.980146,22.2601061 L141.463335,20.9917719 C141.046988,19.9699925 141.612159,19.1416767 142.174316,19.1416767 L140.709473,19.1416767 C141.518484,19.1416767 142.390505,18.2739696 142.655669,17.2096948 L142.667085,17.163878 C142.932928,16.0968738 143.342856,16.0968916 143.586846,17.1824386 L143.887397,18.5196347 C144.129524,19.5968896 145.216247,20.3711001 145.954224,20.2889874 L144.325806,20.4701773 C145.225156,20.3701089 145.6912,21.14173 145.362203,22.2083665 L145.619731,21.3734394" id="Path-52" fill="#16253E"></path>
                    <path d="M183.259766,21.6025391 L186.004883,23.9462891 L187.563477,20.0556641" id="Path-53" fill="#16253E"></path>
                    <path d="M139.286399,80.614563 C139.286399,80.614563 140.666548,82.3602905 138.579013,83.0037231 C136.491477,83.6471558 132.697798,86.461853 132.697798,88.598938" id="Path-54" stroke="#16253E"></path>
                    <path d="M139.435547,82.395752 C139.435547,82.395752 141.909801,84.6879272 141.909801,86.4054565 C141.909801,88.1229858 144.622692,92.3112793 146.560547,93.3417969 C148.498402,94.3723145 150.972656,100.641724 150.972656,103.603394 C150.972656,106.565063 150.59233,109.727966 150.59233,109.727966" id="Path-55" stroke="#16253E"></path>
                    <path d="M142.033381,80.7158203 C142.033381,80.7158203 148.212891,83.9500732 148.212891,86.0491333 C148.212891,88.1481934 149.354936,90.2805786 149.354936,90.2805786" id="Path-56" stroke="#16253E"></path>
                    <path d="M143.733665,81.1789551 C143.733665,81.1789551 145.998047,79.194397 148.377486,79.194397" id="Path-57" stroke="#16253E"></path>
                    <path d="M146.207919,79.7186279 C146.207919,79.7186279 146.303267,82.0795898 148.342862,82.0795898" id="Path-58" stroke="#16253E"></path>
                    <path d="M137.934482,83.6877441 C137.934482,83.6877441 137.737926,85.3672485 140.31392,85.8632812 C142.889915,86.359314 135.691939,94.4509277 139.308239,102.15033" id="Path-59" stroke="#16253E"></path>
                    <path d="M139.206499,85.5095215 C139.206499,85.5095215 131.082741,91.1730957 131.837536,94.1732178" id="Path-60" stroke="#16253E"></path>
                    <path d="M140.621271,87.9905396 C140.621271,87.9905396 135.631747,88.6318359 134.822621,92.7611694" id="Path-61" stroke="#16253E"></path>
                    <path d="M137.77255,89.3491821 L137.677734,92.3920288" id="Path-62" stroke="#16253E"></path>
                    <path d="M138.479936,94.480835 C138.479936,94.480835 133.448864,96.7405396 133.448864,100.142273" id="Path-63" stroke="#16253E"></path>
                    <path d="M135.181108,97.1374512 L135.181108,100.506287" id="Path-64" stroke="#16253E"></path>
                    <path d="M138.832564,100.524231 C138.832564,100.524231 135.615767,101.842712 135.615767,103.430359" id="Path-65" stroke="#16253E"></path>
                    <path d="M140.082209,91.5119019 C140.082209,91.5119019 143.835405,95.4733276 143.835405,98.5751343" id="Path-66" stroke="#16253E"></path>
                    <path d="M141.871449,94.119812 L141.871449,97.2775879" id="Path-67" stroke="#16253E"></path>
                    <path d="M143.190874,89.8174438 C143.190874,89.8174438 144.183771,93.0948486 144.754794,94.534668 C145.325817,95.9744873 145.347124,98.961792 144.659979,99.8624268 C143.972834,100.763062 132.151278,108.515869 133.680575,111.892395" id="Path-68" stroke="#16253E"></path>
                    <path d="M137.731534,106.510803 L137.731534,111.11908 C137.731534,111.729614 135.888494,112.836182 135.888494,113.938049" id="Path-69" stroke="#16253E"></path>
                    <path d="M139.736506,103.533752 C139.736506,103.533752 140.186612,107.549011 140.764027,109.724548" id="Path-70" stroke="#16253E"></path>
                    <path d="M140.015625,105.770386 C140.015625,105.770386 143.035334,108.111267 143.035334,108.836304" id="Path-71" stroke="#16253E"></path>
                    <path d="M138.6163,97.7172241 C138.6163,97.7172241 142.042436,101.419312 143.463601,104.047729" id="Path-72" stroke="#16253E"></path>
                    <path d="M142.077592,101.620544 L142.315163,105.546509" id="Path-73" stroke="#16253E"></path>
                    <path d="M145.224609,99.0198975 C145.224609,99.0198975 146.366655,106.856445 146.366655,108.525696" id="Path-74" stroke="#16253E"></path>
                    <path d="M146.40767,103.978943 C146.40767,103.978943 148.888317,106.335205 148.888317,106.826111" id="Path-75" stroke="#16253E"></path>
                    <path d="M145.46218,94.6175537 C145.46218,94.6175537 148.828125,100.666077 148.828125,102.68866" id="Path-76" stroke="#16253E"></path>
                    <path d="M149.732067,97.5946045 C149.732067,97.5946045 152.653764,95.4673462 155.905185,97.9278564" id="Path-77" stroke="#16253E"></path>
                    <path d="M146.464666,92.6355591 C146.464666,92.6355591 153.719105,92.2211304 154.950107,94.1087036" id="Path-78" stroke="#16253E"></path>
                    <path d="M150.788352,92.4138184 C150.788352,92.4138184 154.017401,95.538269 154.017401,97.5941772" id="Path-79" stroke="#16253E"></path>
                    <path d="M143.78054,82.1265869 C143.78054,82.1265869 142.216619,85.319397 142.216619,87.8358765" id="Path-80" stroke="#16253E"></path>
                    <path d="M182.322399,82.0758667 C182.322399,82.0758667 184.27761,84.3203735 181.320268,85.147644 C178.362926,85.9749146 172.988548,89.593811 172.988548,92.3414917" id="Path-54" stroke="#16253E"></path>
                    <path d="M182.533691,83.3659668 C182.533691,83.3659668 186.038885,86.3130493 186.038885,88.5213013 C186.038885,90.7295532 189.882147,96.114502 192.627441,97.4394531 C195.372736,98.7644043 198.87793,106.825073 198.87793,110.632935 C198.87793,114.440796 198.339134,118.507385 198.339134,118.507385" id="Path-55" stroke="#16253E"></path>
                    <path d="M186.213956,82.2060547 C186.213956,82.2060547 194.968262,86.3643799 194.968262,89.0631714 C194.968262,91.7619629 196.586159,94.5036011 196.586159,94.5036011" id="Path-56" stroke="#16253E"></path>
                    <path d="M188.622692,82.8015137 C188.622692,82.8015137 191.830566,80.249939 195.201438,80.249939" id="Path-57" stroke="#16253E"></path>
                    <path d="M192.127885,80.9239502 C192.127885,80.9239502 192.262962,83.9594727 195.152388,83.9594727" id="Path-58" stroke="#16253E"></path>
                    <path d="M180.407182,86.0270996 C180.407182,86.0270996 180.128729,88.1864624 183.778054,88.8242188 C187.427379,89.4619751 177.230247,99.8654785 182.353338,109.764709" id="Path-59" stroke="#16253E"></path>
                    <path d="M182.209206,88.3693848 C182.209206,88.3693848 170.70055,95.651123 171.769842,99.5084229" id="Path-60" stroke="#16253E"></path>
                    <path d="M184.213468,91.5592651 C184.213468,91.5592651 177.144975,92.3837891 175.998713,97.6929321" id="Path-61" stroke="#16253E"></path>
                    <path d="M180.177779,93.3060913 L180.043457,97.2183228" id="Path-62" stroke="#16253E"></path>
                    <path d="M181.179909,99.9039307 C181.179909,99.9039307 174.052557,102.809265 174.052557,107.182922" id="Path-63" stroke="#16253E"></path>
                    <path d="M176.50657,103.31958 L176.50657,107.65094" id="Path-64" stroke="#16253E"></path>
                    <path d="M181.679466,107.674011 C181.679466,107.674011 177.122337,109.369202 177.122337,111.410461" id="Path-65" stroke="#16253E"></path>
                    <path d="M183.449796,96.086731 C183.449796,96.086731 188.766824,101.179993 188.766824,105.16803" id="Path-66" stroke="#16253E"></path>
                    <path d="M185.984553,99.4397583 L185.984553,103.499756" id="Path-67" stroke="#16253E"></path>
                    <path d="M187.853738,93.9081421 C187.853738,93.9081421 189.260343,98.1219482 190.069292,99.9731445 C190.87824,101.824341 190.908425,105.665161 189.93497,106.82312 C188.961515,107.981079 172.214311,117.948975 174.380815,122.290222" id="Path-68" stroke="#16253E"></path>
                    <path d="M180.119673,115.371033 L180.119673,121.295959 C180.119673,122.080933 177.5087,123.503662 177.5087,124.920349" id="Path-69" stroke="#16253E"></path>
                    <path d="M182.96005,111.543396 C182.96005,111.543396 183.597701,116.705872 184.415705,119.502991" id="Path-70" stroke="#16253E"></path>
                    <path d="M183.355469,114.419067 C183.355469,114.419067 187.63339,117.428772 187.63339,118.360962" id="Path-71" stroke="#16253E"></path>
                    <path d="M181.373091,104.065002 C181.373091,104.065002 186.226784,108.824829 188.240101,112.204224" id="Path-72" stroke="#16253E"></path>
                    <path d="M186.276589,109.083557 L186.613148,114.131226" id="Path-73" stroke="#16253E"></path>
                    <path d="M190.734863,105.739868 C190.734863,105.739868 192.352761,115.81543 192.352761,117.961609" id="Path-74" stroke="#16253E"></path>
                    <path d="M192.410866,112.115784 C192.410866,112.115784 195.925115,115.145264 195.925115,115.776428" id="Path-75" stroke="#16253E"></path>
                    <path d="M191.071422,100.079712 C191.071422,100.079712 195.839844,107.856384 195.839844,110.456848" id="Path-76" stroke="#16253E"></path>
                    <path d="M197.120428,103.907349 C197.120428,103.907349 201.259499,101.172302 205.865678,104.335815" id="Path-77" stroke="#16253E"></path>
                    <path d="M192.49161,97.5314331 C192.49161,97.5314331 202.768732,96.9985962 204.512651,99.4254761" id="Path-78" stroke="#16253E"></path>
                    <path d="M198.616832,97.2463379 C198.616832,97.2463379 203.191317,101.263489 203.191317,103.906799" id="Path-79" stroke="#16253E"></path>
                    <path d="M188.689098,84.0198975 C188.689098,84.0198975 186.473544,88.124939 186.473544,91.3604126" id="Path-80" stroke="#16253E"></path>
                </g>
                <g id="Root" transform="translate(177.000000, 87.000000)" stroke="#16253E">
                    <path d="M8.00114746,0.342022236 C8.00114746,0.342022236 0.704711914,3.7344689 0.704711914,7.68188477 C0.704711914,11.6293006 7.72712402,16.7868652 7.72712402,18.4408804 C7.72712402,20.0948956 8.78054199,26.7959172 8.78054199,26.7959172" id="Path-1866"></path>
                    <path d="M7.8776123,1.15350811 C7.8776123,1.15350811 7.13190918,11.9413687 7.8776123,12.8655912 C8.62331543,13.7898137 16.4419675,20.8377592 16.4419678,23.7569298" id="Path-1867"></path>
                    <path d="M9.76376953,14.4645996 L11.5190918,24.6811523" id="Path-1868"></path>
                    <path d="M0.761425781,9.19702148 C0.761425781,9.19702148 -1.08149414,13.2152381 0.209448242,14.820782 C1.50039063,16.4263259 1.65087891,20.5131648 1.65087891,20.5131648" id="Path-1870"></path>
                    <path d="M1.65761719,5.51265775 C1.65761719,5.51265775 5.65734863,10.1049053 5.65734863,11.4898776" id="Path-1871"></path>
                    <path d="M3.81442871,7.779372 L3.36296387,11.0748761" id="Path-1872"></path>
                    <path d="M8.23586426,-0.35952524 C8.23586426,-0.35952524 8.86420898,6.42918044 13.3519043,7.72973633 C17.8395996,9.03029222 20.9700928,17.7752779 20.9700928,21.151386 C20.9700928,24.527494 20.0671631,27.7549204 20.0671631,27.7549204" id="Path-1873"></path>
                    <path d="M8.79401855,-0.153583233 C8.79401855,-0.153583233 14.3486084,1.92523663 14.3486084,7.90300105 C14.3486084,13.8807655 11.7897461,17.7922363 12.7499512,24.4736516" id="Path-1874"></path>
                    <path d="M7.69736328,7.33496094 C7.69736328,7.33496094 7.89838867,8.67091722 9.05175781,9.54013296 C10.205127,10.4093487 10.8070801,12.4952486 10.8070801,12.4952486" id="Path-1875"></path>
                    <path d="M14.1312988,11.0127892 C14.1312988,11.0127892 14.4328369,15.4274902 15.5294922,16.4911358 C16.6261475,17.5547814 16.7766357,18.95936 16.7766357,18.95936" id="Path-1876"></path>
                    <path d="M18.8334961,14.7309946 C18.8334961,14.7309946 18.3320557,16.5930551 17.6363281,17.9420823" id="Path-1877"></path>
                    <path d="M19.7998779,15.9405987 L20.9538086,16.6638559" id="Path-1878"></path>
                    <path d="M21.6489746,22.2881611 C21.6489746,22.2881611 21.70625,26.6538462 23.1038818,26.6538462" id="Path-1879"></path>
                </g>
                <g transform="translate(141.500000, 69.500000) scale(-1, 1) translate(-141.500000, -69.500000) translate(64.000000, 19.000000)">
                    <path d="M91.4492187,71.6416016 C91.4492187,71.6416016 91.2626953,51.8623047 89.1806641,45.3544922 C87.0986328,38.8466797 89.1806641,17.6542969 94.4912108,10.6113281" id="Path-337" stroke="#16253E"></path>
                    <path d="M92.2177734,54.9082031 C92.2177734,54.9082031 92.578125,46.9921875 96.8408203,46.9921875 C102.75,47.8417969 92.2177734,54.9082031 92.2177734,54.9082031 Z" id="Path-338" fill="#16253E"></path>
                    <path d="M88.9941406,48.5576172 C88.9941406,48.5576172 78.2753906,48.3476563 78.2753906,42.3632813 C83.2890625,39.5195313 88.4472656,46.4472656 88.4472656,46.4472656" id="Path-339" fill="#16253E"></path>
                    <path d="M88.1220703,36.7871094 C88.1220703,36.7871094 94.9677734,33.5712891 98.0087891,36.2519531 C92.7744141,38.9326172 89.3720703,38.2226562 89.3720703,40.0546875" id="Path-340" fill="#16253E"></path>
                    <path d="M88.3134766,31.8544922 C88.3134766,31.8544922 79.4384766,29.4882813 79.4384766,25.4111328 C83.265625,24.1376953 88.3134766,31.8544922 88.3134766,31.8544922 Z" id="Path-341" fill="#16253E"></path>
                    <path d="M89.6386719,27.1904297 C89.6386719,27.1904297 92.6054688,23.1894531 98.9501953,23.1894531 C105.294922,23.1894531 90.7490234,25.5576172 90.7490234,28.5869141" id="Path-342" fill="#16253E"></path>
                    <path d="M90.9589844,19.3740234 C90.9589844,19.3740234 98.9970703,16.8564453 98.9970703,14.0761719 C98.9970703,11.2958984 93.6865234,15.8330078 93.6865234,15.8330078 L95.4082031,8.88867188 C95.4082031,8.88867188 91.7675781,10.7958984 91.7675781,13.3144531 C91.7675781,15.8330078 85.8466797,10.3242188 85.8466797,11.8193359 C85.8466797,13.3144531 90.5693359,17.8916016 90.5693359,17.8916016" id="Path-343" fill="#16253E"></path>
                    <g transform="translate(15.000000, 0.000000)">
                        <path d="M19.4101562,68.4188702 C19.4101562,68.4188702 11.3730469,52.6661158 11.3730469,44.5688101 C11.3730469,36.4715044 12.7568359,5.94250801 9.46484375,2.42978766" id="Path-344" stroke="#16253E"></path>
                        <path d="M10.7109375,42.0283454 C10.7109375,42.0283454 0.388671875,39.4623397 0.388671875,35.7359275 C5.05273437,33.8246194 11.1708984,40.7453425 11.1708984,40.7453425" id="Path-345" fill="#16253E"></path>
                        <path d="M11.9326172,33.9208233 C11.9326172,33.9208233 13.7753906,30.0522336 17.0791016,28.3895232 C20.3828125,29.672526 12.2177734,35.3664363 12.2177734,35.3664363" id="Path-346" fill="#16253E"></path>
                        <path d="M11.1474609,26.9243289 C11.1474609,26.9243289 2.43554688,26.6203926 2.43554688,22.371244 C4.4296875,18.3502604 11.6708984,24.869992 11.6708984,24.869992" id="Path-347" fill="#16253E"></path>
                        <path d="M11.1474609,20.1645132 C11.1474609,20.1645132 19.1494141,16.2303686 22.453125,17.2188001 C22.1162109,18.643129 15.7236328,23.3486077 12.6181641,22.4461639" id="Path-348" fill="#16253E"></path>
                        <path d="M10.8212891,15.1448818 C10.8212891,15.1448818 0.55078125,14.0389623 0.55078125,9.45097155 C6.11132812,7.74228766 11.8564453,14.1002604 11.8564453,14.1002604" id="Path-349" fill="#16253E"></path>
                        <path d="M11.8564453,10.328726 C11.8564453,10.328726 11.6943359,6.83984375 21.6044922,8.12284655 C19.4179688,12.6452825 11.8564453,10.328726 11.8564453,10.328726 Z" id="Path-350" fill="#16253E"></path>
                        <path d="M10.6884766,6.14513221 C10.6884766,6.14513221 6.87402344,5.41551482 6.87402344,0.862429888 C9.11816406,-1.34259816 11.3984375,3.75280449 11.3984375,3.75280449 C11.3984375,3.75280449 12.4326172,2.31825932 15.3994141,2.31825921 C15.7490234,4.79657452 10.6884766,6.14513221 10.6884766,6.14513221 Z" id="Path-351" fill="#16253E"></path>
                    </g>
                    <path d="M5.5703125,84.4804688 C5.5703125,84.4804688 5.30859375,96.8925781 5.30859375,101.230469" id="Path-356" stroke="#16253E"></path>
                    <path d="M5.12207031,90.6748047 C5.12207031,90.6748047 0.213867188,94.7744141 0.213867188,96.7695312" id="Path-357" stroke="#16253E"></path>
                    <path d="M6.75683594,89.0810547 C6.75683594,89.0810547 7.87890625,89.2431641 7.87890625,92.2851562" id="Path-358" stroke="#16253E"></path>
                    <path d="M5.64550781,84.9287109 C5.64550781,84.9287109 1.73144531,85.1035156 1.73144531,89.0810547" id="Path-359" stroke="#16253E"></path>
                    <path d="M152.56543,56.8242188 C152.56543,56.8242188 148.489258,56.5341797 148.489258,61.5234375" id="Path-360" stroke="#16253E"></path>
                    <path d="M153.112305,58.0742188 C153.112305,58.0742188 149.624023,61.6972656 151.368164,67.0595703" id="Path-361" stroke="#16253E"></path>
                    <path d="M154.223633,58.6845703 C154.223633,58.6845703 154.223633,59.9931641 154.223633,63.046875" id="Path-362" stroke="#16253E"></path>
                </g>
            </g>
            <g id="Group-2" transform="translate(357.500000, 62.500000) scale(-1, 1) translate(-357.500000, -62.500000) translate(240.000000, 0.000000)" sketch:type="MSShapeGroup">
                <g id="Root" transform="translate(122.000000, 90.000000)" stroke="#16253E">
                    <path d="M7.41517857,0.51108871 C7.41517857,0.51108871 10.0326916,8.42943548 12.30492,9.86441532 C14.5771484,11.2993952 20.7001953,15.3064516 21.7452567,16.7923387" id="Path-1847"></path>
                    <path d="M15.9874442,12.4702621 L16.5235305,17.3205645" id="Path-1848"></path>
                    <path d="M15.890253,11.6658266 C15.890253,11.6658266 18.750744,15.4863911 18.750744,17.1854839" id="Path-1849"></path>
                    <path d="M13.038458,10.3684476 L13.038458,14.2676411" id="Path-1850"></path>
                    <path d="M6.05296689,0.558971774 L6.56194196,11.2631048 C6.56194196,11.2631048 -0.00613839286,17.843246 -0.00613839286,20.9768145" id="Path-1851"></path>
                    <path d="M3.65592448,14.4359879 C3.65592448,14.4359879 2.28450521,22.0272177 5.66624814,25.1340726" id="Path-1852"></path>
                    <path d="M5.2094494,13.7212702 C5.2094494,13.7212702 5.75167411,15.6068548 5.75167411,17.3054435 C5.75167411,19.0040323 6.3000372,22.4652218 6.3000372,22.4652218" id="Path-1853"></path>
                    <path d="M1.36476935,17.3503024 L1.36476935,20.4390121" id="Path-1854"></path>
                    <path d="M4.43243118,23.7772177 C4.43243118,23.7772177 4.07896205,27.6759073 5.11788504,28.8467742" id="Path-1855"></path>
                    <path d="M6.93996466,11.1668347 C6.93996466,11.1668347 12.1304874,16.4334677 14.8661644,19.0554435 C17.6018415,21.6774194 19.9385231,32.1033266 19.9385231,32.1033266" id="Path-1856"></path>
                    <path d="M14.5464565,18.4667339 C14.5464565,18.4667339 20.9835844,21.6577621 20.9835844,25.0614919" id="Path-1857"></path>
                    <path d="M12.0210193,16.2303427 C12.0210193,16.2303427 10.5191592,20.7444556 12.0210193,23.1129032" id="Path-1858"></path>
                    <path d="M14.945452,18.7394153 L14.8083612,23.0050403" id="Path-1859"></path>
                    <path d="M18.2750186,26.4354839 C18.2750186,26.4354839 16.7276321,28.2520161 16.7276321,30.7731855" id="Path-1860"></path>
                    <path d="M5.52608817,0.0745967742 C5.52608817,0.0745967742 3.28045945,3.6890121 3.28045945,7.81300403 C3.28045945,11.936996 2.40625,13.6300403 2.40625,13.6300403" id="Path-1861"></path>
                    <path d="M3.22265625,7.84879032 C3.22265625,7.84879032 0.14015997,8.22379032 0.14015997,11.1053427" id="Path-1862"></path>
                    <path d="M3.29273624,7.92641129 C3.29273624,7.92641129 5.07491629,8.74294355 5.07491629,10.4929435" id="Path-1863"></path>
                    <path d="M8.17020089,11.6965726 C8.17020089,11.6965726 7.49088542,16.5539315 8.17020089,17.5831653" id="Path-1864"></path>
                </g>
                <g id="Lower-3" transform="translate(117.500000, 62.500000) scale(-1, 1) translate(-117.500000, -62.500000) ">
                    <path d="M0.48046875,108.429688 C25.0820313,108.429687 39.53125,83.8300781 60.8164062,83.8300781 C82.1015625,83.8300781 98.7265625,87.1289062 108.992188,89.9824219 C119.257812,92.8359375 138.630859,86.8417969 148.203125,77.4199219 C157.775391,67.9980469 189.310547,83.8300781 197.369141,83.8300781 C205.427734,83.8300781 233.34375,45.1406247 233.34375,39.5820312" id="Path-24" stroke="#16253E"></path>
                    <path d="M141.121094,81.6103516 C141.121094,81.6103516 141.917969,20.5146484 144,18.9443359" id="Path-25" stroke="#16253E"></path>
                    <path d="M141.295898,47.1972656 C141.295898,47.1972656 134.445312,47.1972655 131.560547,41.7138672 C138.260742,37.9101562 141.679688,45.5 141.679688,45.5" id="Path-26" fill="#16253E"></path>
                    <path d="M140.848633,39.2109375 C140.848633,39.2109375 139.104492,36.1282552 131.264648,35.1979167 C123.424805,34.2675781 137.993164,31.3463542 140.086914,34.2753906" id="Path-27" fill="#16253E"></path>
                    <path d="M142.058594,49.7675781 C142.058594,49.7675781 145.15918,42.1142578 150.695312,42.1142578 C156.231445,42.1142578 142.733398,54.6533203 142.733398,54.6533203" id="Path-28" fill="#16253E"></path>
                    <path d="M147.61084,77.4741211 C147.61084,77.4741211 145.833496,70.2338867 149.922363,66.1391602 C154.01123,62.0444336 154.054688,4.73486328 154.054688,4.73486328" id="Path-29" stroke="#16253E"></path>
                    <path d="M153.830566,10.2250977 C153.830566,10.2250977 151.463379,6.28808594 144.240234,8.7421875 C147.063965,12.9570312 153.312988,12.2490234 153.312988,12.2490234" id="Path-30" fill="#16253E"></path>
                    <path d="M153.388672,14.9194336 C153.388672,14.9194336 158.651855,7.32275398 163.915039,9.82226563 C159.538086,16.0844727 156.375,16.9321289 156.375,16.9321289" id="Path-31" fill="#16253E"></path>
                    <path d="M154.234375,22.8828125 C154.234375,22.8828125 153.710938,19.1811523 148.694824,18.6577148 C143.678711,18.1342773 142.506836,19.355957 142.506836,19.355957 C142.506836,19.355957 149.305664,25.6748048 153.382324,24.2788086" id="Path-32" fill="#16253E"></path>
                    <path d="M153.533203,28.9521484 C153.533203,28.9521484 157.15332,23.0195312 162.381836,23.0195312 C159.701172,28.9521484 154.149902,30.9204102 154.149902,30.9204102" id="Path-33" fill="#16253E"></path>
                    <path d="M153.681641,39.652832 C153.681641,39.652832 150.616699,33.6948242 147.493652,33.6948242" id="Path-34" fill="#16253E"></path>
                    <path d="M153.257324,45.9516602 C153.257324,45.9516602 155.249512,38.6791992 163.80127,38.6791992 C160.236328,44.0820314 153.277344,48.8422852 153.277344,48.8422852" id="Path-35" fill="#16253E"></path>
                    <path d="M153.816406,5.515625 C153.816406,5.515625 147.185547,2.71191402 151.023437,0.269531208 C154.861328,-2.1728516 153.932617,2.08984375 153.932617,2.08984375 C153.932617,2.08984375 155.329101,-1.55078121 157.061523,0.26953125 C158.793946,2.08984371 155.1875,5.51562496 155.1875,5.51562496" id="Path-36" fill="#16253E"></path>
                    <path d="M188.28125,81.5810547 C188.28125,81.5810547 188.303711,63.7099609 191.595703,57.3007812 C194.887695,50.8916016 188.106445,43.0634766 187.05957,35.125 C186.012695,27.1865234 185.750977,20.9521484 185.750977,20.9521484" id="Path-37" stroke="#16253E"></path>
                    <path d="M187.330078,31.0712891 C187.330078,31.0712891 193.378906,30.5595703 193.378906,26.7324219 C193.378906,22.9052734 188.540039,28.0693359 188.540039,28.0693359" id="Path-38" fill="#16253E"></path>
                    <path d="M186.283203,29.3662109 L180.125,25.1787109" id="Path-39" stroke="#16253E"></path>
                    <path d="M187.703125,37.4677734 C187.703125,37.4677734 185.760742,30.0761719 178.304688,35.6474609 C170.848633,41.21875 182.637695,32.6298831 186.27832,38.4628906" id="Path-40" fill="#16253E"></path>
                    <path d="M190.206543,44.1005859 C190.206543,44.1005859 191.907715,36.7841797 196.662109,36.7841797 C201.416504,36.7841797 191.122559,42.7163086 191.122559,44.8100586" id="Path-41" fill="#16253E"></path>
                    <path d="M191.951172,50.3618164 C191.951172,50.3618164 189.162109,44.3774414 181.97998,47.8813477 C188.55127,50.3618164 191.86377,53.9121094 191.86377,53.9121094" id="Path-42" fill="#16253E"></path>
                    <path d="M190.877441,58.9804688 C190.877441,58.9804688 193.58252,52.9291992 198.374512,52.9291992 C203.166504,52.9291992 190.833984,60.9873047 190.833984,60.9873047" id="Path-43" fill="#16253E"></path>
                    <path d="M188.970215,66.3901367 C188.970215,66.3901367 188.560059,58.8876953 183.599121,58.8876953 C178.638184,58.8876953 178.158203,61.8417969 178.158203,61.8417969 C178.158203,61.8417969 186.695801,60.5883789 187.306641,67.2504883" id="Path-44" fill="#16253E"></path>
                    <path d="M211.578613,71.699707 C211.578613,71.699707 208.40625,63.5258789 210.406738,60.7080078 C213.898926,64.543457 212.852051,69.2983398 212.852051,69.2983398" id="Path-45" fill="#16253E"></path>
                    <path d="M217.245605,64.2758789 C217.245605,64.2758789 213.125488,59.4892578 214.814941,56.4042969 C218.057129,58.0737305 218.879883,62.9472656 218.879883,62.9472656" id="Path-46" fill="#16253E"></path>
                    <path d="M213.143555,70.7470703 C213.143555,70.7470703 222.754395,72.8237305 226.200195,68.5112305 C223.31543,64.1113281 215.30127,69.6948242 215.30127,69.6948242" id="Path-47" fill="#16253E"></path>
                    <path d="M222.628906,56.6088867 C222.628906,56.6088867 217.39502,55.4018555 218.049316,50.8017578 C221.352539,50.6445312 223.838867,55.3554687 223.838867,55.3554687" id="Path-48" fill="#16253E"></path>
                    <path d="M219.750488,63.0585938 C219.750488,63.0585938 227.229492,63.2329102 229.454102,59.7871094 C227.712402,56.8647461 221.556152,60.5229492 221.556152,60.5229492" id="Path-49" fill="#16253E"></path>
                    <path d="M226.097656,53.6811523 C226.097656,53.6811523 230.497559,56.3530273 233.769043,50.9824219 C231.425293,48.9643555 227.505371,52.3608398 227.505371,52.3608398" id="Path-50" fill="#16253E"></path>
                    <path d="M227.505371,48.5776367 C227.505371,48.5776367 223.416504,44.3203125 225.460937,43.0991211 C227.505371,41.8779297 228.677246,44.9692383 228.677246,44.9692383 C228.677246,44.9692383 228.714844,39.7084959 231.806152,39.7084961 C234.897461,39.7084962 231.669434,46.1699219 231.669434,46.1699219 C231.669434,46.1699219 234.28125,44.7739258 235.28418,46.0390625 C236.287109,47.3041992 229.843262,49.4414062 229.843262,49.4414062" id="Path-51" fill="#16253E"></path>
                    <path d="M142.734009,24.1102013 C142.734009,24.1102013 142.399698,23.2897505 141.980146,22.2601061 L141.463335,20.9917719 C141.046988,19.9699925 141.612159,19.1416767 142.174316,19.1416767 L140.709473,19.1416767 C141.518484,19.1416767 142.390505,18.2739696 142.655669,17.2096948 L142.667085,17.163878 C142.932928,16.0968738 143.342856,16.0968916 143.586846,17.1824386 L143.887397,18.5196347 C144.129524,19.5968896 145.216247,20.3711001 145.954224,20.2889874 L144.325806,20.4701773 C145.225156,20.3701089 145.6912,21.14173 145.362203,22.2083665 L145.619731,21.3734394" id="Path-52" fill="#16253E"></path>
                    <path d="M183.259766,21.6025391 L186.004883,23.9462891 L187.563477,20.0556641" id="Path-53" fill="#16253E"></path>
                    <path d="M139.286399,80.614563 C139.286399,80.614563 140.666548,82.3602905 138.579013,83.0037231 C136.491477,83.6471558 132.697798,86.461853 132.697798,88.598938" id="Path-54" stroke="#16253E"></path>
                    <path d="M139.435547,82.395752 C139.435547,82.395752 141.909801,84.6879272 141.909801,86.4054565 C141.909801,88.1229858 144.622692,92.3112793 146.560547,93.3417969 C148.498402,94.3723145 150.972656,100.641724 150.972656,103.603394 C150.972656,106.565063 150.59233,109.727966 150.59233,109.727966" id="Path-55" stroke="#16253E"></path>
                    <path d="M142.033381,80.7158203 C142.033381,80.7158203 148.212891,83.9500732 148.212891,86.0491333 C148.212891,88.1481934 149.354936,90.2805786 149.354936,90.2805786" id="Path-56" stroke="#16253E"></path>
                    <path d="M143.733665,81.1789551 C143.733665,81.1789551 145.998047,79.194397 148.377486,79.194397" id="Path-57" stroke="#16253E"></path>
                    <path d="M146.207919,79.7186279 C146.207919,79.7186279 146.303267,82.0795898 148.342862,82.0795898" id="Path-58" stroke="#16253E"></path>
                    <path d="M137.934482,83.6877441 C137.934482,83.6877441 137.737926,85.3672485 140.31392,85.8632812 C142.889915,86.359314 135.691939,94.4509277 139.308239,102.15033" id="Path-59" stroke="#16253E"></path>
                    <path d="M139.206499,85.5095215 C139.206499,85.5095215 131.082741,91.1730957 131.837536,94.1732178" id="Path-60" stroke="#16253E"></path>
                    <path d="M140.621271,87.9905396 C140.621271,87.9905396 135.631747,88.6318359 134.822621,92.7611694" id="Path-61" stroke="#16253E"></path>
                    <path d="M137.77255,89.3491821 L137.677734,92.3920288" id="Path-62" stroke="#16253E"></path>
                    <path d="M138.479936,94.480835 C138.479936,94.480835 133.448864,96.7405396 133.448864,100.142273" id="Path-63" stroke="#16253E"></path>
                    <path d="M135.181108,97.1374512 L135.181108,100.506287" id="Path-64" stroke="#16253E"></path>
                    <path d="M138.832564,100.524231 C138.832564,100.524231 135.615767,101.842712 135.615767,103.430359" id="Path-65" stroke="#16253E"></path>
                    <path d="M140.082209,91.5119019 C140.082209,91.5119019 143.835405,95.4733276 143.835405,98.5751343" id="Path-66" stroke="#16253E"></path>
                    <path d="M141.871449,94.119812 L141.871449,97.2775879" id="Path-67" stroke="#16253E"></path>
                    <path d="M143.190874,89.8174438 C143.190874,89.8174438 144.183771,93.0948486 144.754794,94.534668 C145.325817,95.9744873 145.347124,98.961792 144.659979,99.8624268 C143.972834,100.763062 132.151278,108.515869 133.680575,111.892395" id="Path-68" stroke="#16253E"></path>
                    <path d="M137.731534,106.510803 L137.731534,111.11908 C137.731534,111.729614 135.888494,112.836182 135.888494,113.938049" id="Path-69" stroke="#16253E"></path>
                    <path d="M139.736506,103.533752 C139.736506,103.533752 140.186612,107.549011 140.764027,109.724548" id="Path-70" stroke="#16253E"></path>
                    <path d="M140.015625,105.770386 C140.015625,105.770386 143.035334,108.111267 143.035334,108.836304" id="Path-71" stroke="#16253E"></path>
                    <path d="M138.6163,97.7172241 C138.6163,97.7172241 142.042436,101.419312 143.463601,104.047729" id="Path-72" stroke="#16253E"></path>
                    <path d="M142.077592,101.620544 L142.315163,105.546509" id="Path-73" stroke="#16253E"></path>
                    <path d="M145.224609,99.0198975 C145.224609,99.0198975 146.366655,106.856445 146.366655,108.525696" id="Path-74" stroke="#16253E"></path>
                    <path d="M146.40767,103.978943 C146.40767,103.978943 148.888317,106.335205 148.888317,106.826111" id="Path-75" stroke="#16253E"></path>
                    <path d="M145.46218,94.6175537 C145.46218,94.6175537 148.828125,100.666077 148.828125,102.68866" id="Path-76" stroke="#16253E"></path>
                    <path d="M149.732067,97.5946045 C149.732067,97.5946045 152.653764,95.4673462 155.905185,97.9278564" id="Path-77" stroke="#16253E"></path>
                    <path d="M146.464666,92.6355591 C146.464666,92.6355591 153.719105,92.2211304 154.950107,94.1087036" id="Path-78" stroke="#16253E"></path>
                    <path d="M150.788352,92.4138184 C150.788352,92.4138184 154.017401,95.538269 154.017401,97.5941772" id="Path-79" stroke="#16253E"></path>
                    <path d="M143.78054,82.1265869 C143.78054,82.1265869 142.216619,85.319397 142.216619,87.8358765" id="Path-80" stroke="#16253E"></path>
                    <path d="M182.322399,82.0758667 C182.322399,82.0758667 184.27761,84.3203735 181.320268,85.147644 C178.362926,85.9749146 172.988548,89.593811 172.988548,92.3414917" id="Path-54" stroke="#16253E"></path>
                    <path d="M182.533691,83.3659668 C182.533691,83.3659668 186.038885,86.3130493 186.038885,88.5213013 C186.038885,90.7295532 189.882147,96.114502 192.627441,97.4394531 C195.372736,98.7644043 198.87793,106.825073 198.87793,110.632935 C198.87793,114.440796 198.339134,118.507385 198.339134,118.507385" id="Path-55" stroke="#16253E"></path>
                    <path d="M186.213956,82.2060547 C186.213956,82.2060547 194.968262,86.3643799 194.968262,89.0631714 C194.968262,91.7619629 196.586159,94.5036011 196.586159,94.5036011" id="Path-56" stroke="#16253E"></path>
                    <path d="M188.622692,82.8015137 C188.622692,82.8015137 191.830566,80.249939 195.201438,80.249939" id="Path-57" stroke="#16253E"></path>
                    <path d="M192.127885,80.9239502 C192.127885,80.9239502 192.262962,83.9594727 195.152388,83.9594727" id="Path-58" stroke="#16253E"></path>
                    <path d="M180.407182,86.0270996 C180.407182,86.0270996 180.128729,88.1864624 183.778054,88.8242188 C187.427379,89.4619751 177.230247,99.8654785 182.353338,109.764709" id="Path-59" stroke="#16253E"></path>
                    <path d="M182.209206,88.3693848 C182.209206,88.3693848 170.70055,95.651123 171.769842,99.5084229" id="Path-60" stroke="#16253E"></path>
                    <path d="M184.213468,91.5592651 C184.213468,91.5592651 177.144975,92.3837891 175.998713,97.6929321" id="Path-61" stroke="#16253E"></path>
                    <path d="M180.177779,93.3060913 L180.043457,97.2183228" id="Path-62" stroke="#16253E"></path>
                    <path d="M181.179909,99.9039307 C181.179909,99.9039307 174.052557,102.809265 174.052557,107.182922" id="Path-63" stroke="#16253E"></path>
                    <path d="M176.50657,103.31958 L176.50657,107.65094" id="Path-64" stroke="#16253E"></path>
                    <path d="M181.679466,107.674011 C181.679466,107.674011 177.122337,109.369202 177.122337,111.410461" id="Path-65" stroke="#16253E"></path>
                    <path d="M183.449796,96.086731 C183.449796,96.086731 188.766824,101.179993 188.766824,105.16803" id="Path-66" stroke="#16253E"></path>
                    <path d="M185.984553,99.4397583 L185.984553,103.499756" id="Path-67" stroke="#16253E"></path>
                    <path d="M187.853738,93.9081421 C187.853738,93.9081421 189.260343,98.1219482 190.069292,99.9731445 C190.87824,101.824341 190.908425,105.665161 189.93497,106.82312 C188.961515,107.981079 172.214311,117.948975 174.380815,122.290222" id="Path-68" stroke="#16253E"></path>
                    <path d="M180.119673,115.371033 L180.119673,121.295959 C180.119673,122.080933 177.5087,123.503662 177.5087,124.920349" id="Path-69" stroke="#16253E"></path>
                    <path d="M182.96005,111.543396 C182.96005,111.543396 183.597701,116.705872 184.415705,119.502991" id="Path-70" stroke="#16253E"></path>
                    <path d="M183.355469,114.419067 C183.355469,114.419067 187.63339,117.428772 187.63339,118.360962" id="Path-71" stroke="#16253E"></path>
                    <path d="M181.373091,104.065002 C181.373091,104.065002 186.226784,108.824829 188.240101,112.204224" id="Path-72" stroke="#16253E"></path>
                    <path d="M186.276589,109.083557 L186.613148,114.131226" id="Path-73" stroke="#16253E"></path>
                    <path d="M190.734863,105.739868 C190.734863,105.739868 192.352761,115.81543 192.352761,117.961609" id="Path-74" stroke="#16253E"></path>
                    <path d="M192.410866,112.115784 C192.410866,112.115784 195.925115,115.145264 195.925115,115.776428" id="Path-75" stroke="#16253E"></path>
                    <path d="M191.071422,100.079712 C191.071422,100.079712 195.839844,107.856384 195.839844,110.456848" id="Path-76" stroke="#16253E"></path>
                    <path d="M197.120428,103.907349 C197.120428,103.907349 201.259499,101.172302 205.865678,104.335815" id="Path-77" stroke="#16253E"></path>
                    <path d="M192.49161,97.5314331 C192.49161,97.5314331 202.768732,96.9985962 204.512651,99.4254761" id="Path-78" stroke="#16253E"></path>
                    <path d="M198.616832,97.2463379 C198.616832,97.2463379 203.191317,101.263489 203.191317,103.906799" id="Path-79" stroke="#16253E"></path>
                    <path d="M188.689098,84.0198975 C188.689098,84.0198975 186.473544,88.124939 186.473544,91.3604126" id="Path-80" stroke="#16253E"></path>
                </g>
                <g id="Root" transform="translate(177.000000, 87.000000)" stroke="#16253E">
                    <path d="M8.00114746,0.342022236 C8.00114746,0.342022236 0.704711914,3.7344689 0.704711914,7.68188477 C0.704711914,11.6293006 7.72712402,16.7868652 7.72712402,18.4408804 C7.72712402,20.0948956 8.78054199,26.7959172 8.78054199,26.7959172" id="Path-1866"></path>
                    <path d="M7.8776123,1.15350811 C7.8776123,1.15350811 7.13190918,11.9413687 7.8776123,12.8655912 C8.62331543,13.7898137 16.4419675,20.8377592 16.4419678,23.7569298" id="Path-1867"></path>
                    <path d="M9.76376953,14.4645996 L11.5190918,24.6811523" id="Path-1868"></path>
                    <path d="M0.761425781,9.19702148 C0.761425781,9.19702148 -1.08149414,13.2152381 0.209448242,14.820782 C1.50039063,16.4263259 1.65087891,20.5131648 1.65087891,20.5131648" id="Path-1870"></path>
                    <path d="M1.65761719,5.51265775 C1.65761719,5.51265775 5.65734863,10.1049053 5.65734863,11.4898776" id="Path-1871"></path>
                    <path d="M3.81442871,7.779372 L3.36296387,11.0748761" id="Path-1872"></path>
                    <path d="M8.23586426,-0.35952524 C8.23586426,-0.35952524 8.86420898,6.42918044 13.3519043,7.72973633 C17.8395996,9.03029222 20.9700928,17.7752779 20.9700928,21.151386 C20.9700928,24.527494 20.0671631,27.7549204 20.0671631,27.7549204" id="Path-1873"></path>
                    <path d="M8.79401855,-0.153583233 C8.79401855,-0.153583233 14.3486084,1.92523663 14.3486084,7.90300105 C14.3486084,13.8807655 11.7897461,17.7922363 12.7499512,24.4736516" id="Path-1874"></path>
                    <path d="M7.69736328,7.33496094 C7.69736328,7.33496094 7.89838867,8.67091722 9.05175781,9.54013296 C10.205127,10.4093487 10.8070801,12.4952486 10.8070801,12.4952486" id="Path-1875"></path>
                    <path d="M14.1312988,11.0127892 C14.1312988,11.0127892 14.4328369,15.4274902 15.5294922,16.4911358 C16.6261475,17.5547814 16.7766357,18.95936 16.7766357,18.95936" id="Path-1876"></path>
                    <path d="M18.8334961,14.7309946 C18.8334961,14.7309946 18.3320557,16.5930551 17.6363281,17.9420823" id="Path-1877"></path>
                    <path d="M19.7998779,15.9405987 L20.9538086,16.6638559" id="Path-1878"></path>
                    <path d="M21.6489746,22.2881611 C21.6489746,22.2881611 21.70625,26.6538462 23.1038818,26.6538462" id="Path-1879"></path>
                </g>
                <g id="Group" transform="translate(141.500000, 69.500000) scale(-1, 1) translate(-141.500000, -69.500000) translate(64.000000, 19.000000)">
                    <path d="M91.4492187,71.6416016 C91.4492187,71.6416016 91.2626953,51.8623047 89.1806641,45.3544922 C87.0986328,38.8466797 89.1806641,17.6542969 94.4912108,10.6113281" id="Path-337" stroke="#16253E"></path>
                    <path d="M92.2177734,54.9082031 C92.2177734,54.9082031 92.578125,46.9921875 96.8408203,46.9921875 C102.75,47.8417969 92.2177734,54.9082031 92.2177734,54.9082031 Z" id="Path-338" fill="#16253E"></path>
                    <path d="M88.9941406,48.5576172 C88.9941406,48.5576172 78.2753906,48.3476563 78.2753906,42.3632813 C83.2890625,39.5195313 88.4472656,46.4472656 88.4472656,46.4472656" id="Path-339" fill="#16253E"></path>
                    <path d="M88.1220703,36.7871094 C88.1220703,36.7871094 94.9677734,33.5712891 98.0087891,36.2519531 C92.7744141,38.9326172 89.3720703,38.2226562 89.3720703,40.0546875" id="Path-340" fill="#16253E"></path>
                    <path d="M88.3134766,31.8544922 C88.3134766,31.8544922 79.4384766,29.4882813 79.4384766,25.4111328 C83.265625,24.1376953 88.3134766,31.8544922 88.3134766,31.8544922 Z" id="Path-341" fill="#16253E"></path>
                    <path d="M89.6386719,27.1904297 C89.6386719,27.1904297 92.6054688,23.1894531 98.9501953,23.1894531 C105.294922,23.1894531 90.7490234,25.5576172 90.7490234,28.5869141" id="Path-342" fill="#16253E"></path>
                    <path d="M90.9589844,19.3740234 C90.9589844,19.3740234 98.9970703,16.8564453 98.9970703,14.0761719 C98.9970703,11.2958984 93.6865234,15.8330078 93.6865234,15.8330078 L95.4082031,8.88867188 C95.4082031,8.88867188 91.7675781,10.7958984 91.7675781,13.3144531 C91.7675781,15.8330078 85.8466797,10.3242188 85.8466797,11.8193359 C85.8466797,13.3144531 90.5693359,17.8916016 90.5693359,17.8916016" id="Path-343" fill="#16253E"></path>
                    <g transform="translate(15.000000, 0.000000)">
                        <path d="M19.4101562,68.4188702 C19.4101562,68.4188702 11.3730469,52.6661158 11.3730469,44.5688101 C11.3730469,36.4715044 12.7568359,5.94250801 9.46484375,2.42978766" id="Path-344" stroke="#16253E"></path>
                        <path d="M10.7109375,42.0283454 C10.7109375,42.0283454 0.388671875,39.4623397 0.388671875,35.7359275 C5.05273437,33.8246194 11.1708984,40.7453425 11.1708984,40.7453425" id="Path-345" fill="#16253E"></path>
                        <path d="M11.9326172,33.9208233 C11.9326172,33.9208233 13.7753906,30.0522336 17.0791016,28.3895232 C20.3828125,29.672526 12.2177734,35.3664363 12.2177734,35.3664363" id="Path-346" fill="#16253E"></path>
                        <path d="M11.1474609,26.9243289 C11.1474609,26.9243289 2.43554688,26.6203926 2.43554688,22.371244 C4.4296875,18.3502604 11.6708984,24.869992 11.6708984,24.869992" id="Path-347" fill="#16253E"></path>
                        <path d="M11.1474609,20.1645132 C11.1474609,20.1645132 19.1494141,16.2303686 22.453125,17.2188001 C22.1162109,18.643129 15.7236328,23.3486077 12.6181641,22.4461639" id="Path-348" fill="#16253E"></path>
                        <path d="M10.8212891,15.1448818 C10.8212891,15.1448818 0.55078125,14.0389623 0.55078125,9.45097155 C6.11132812,7.74228766 11.8564453,14.1002604 11.8564453,14.1002604" id="Path-349" fill="#16253E"></path>
                        <path d="M11.8564453,10.328726 C11.8564453,10.328726 11.6943359,6.83984375 21.6044922,8.12284655 C19.4179688,12.6452825 11.8564453,10.328726 11.8564453,10.328726 Z" id="Path-350" fill="#16253E"></path>
                        <path d="M10.6884766,6.14513221 C10.6884766,6.14513221 6.87402344,5.41551482 6.87402344,0.862429888 C9.11816406,-1.34259816 11.3984375,3.75280449 11.3984375,3.75280449 C11.3984375,3.75280449 12.4326172,2.31825932 15.3994141,2.31825921 C15.7490234,4.79657452 10.6884766,6.14513221 10.6884766,6.14513221 Z" id="Path-351" fill="#16253E"></path>
                    </g>
                    <path d="M5.5703125,84.4804688 C5.5703125,84.4804688 5.30859375,96.8925781 5.30859375,101.230469" id="Path-356" stroke="#16253E"></path>
                    <path d="M5.12207031,90.6748047 C5.12207031,90.6748047 0.213867188,94.7744141 0.213867188,96.7695312" id="Path-357" stroke="#16253E"></path>
                    <path d="M6.75683594,89.0810547 C6.75683594,89.0810547 7.87890625,89.2431641 7.87890625,92.2851562" id="Path-358" stroke="#16253E"></path>
                    <path d="M5.64550781,84.9287109 C5.64550781,84.9287109 1.73144531,85.1035156 1.73144531,89.0810547" id="Path-359" stroke="#16253E"></path>
                    <path d="M152.56543,56.8242188 C152.56543,56.8242188 148.489258,56.5341797 148.489258,61.5234375" id="Path-360" stroke="#16253E"></path>
                    <path d="M153.112305,58.0742188 C153.112305,58.0742188 149.624023,61.6972656 151.368164,67.0595703" id="Path-361" stroke="#16253E"></path>
                    <path d="M154.223633,58.6845703 C154.223633,58.6845703 154.223633,59.9931641 154.223633,63.046875" id="Path-362" stroke="#16253E"></path>
                </g>
            </g>
        </g>
    </g>
</svg>
